#N canvas 519 287 505 323 10;
#X obj 14 13 tgl 15 0 empty empty empty 17 7 0 10 -260818 -1 -1 1 1
;
#X obj 14 58 blocks;
#X text 43 11 click here to start/stop;
#X obj 43 33 r msg;
#X floatatom 24 150 5 0 0 0 x - -, f 5;
#X floatatom 74 150 5 0 0 0 y - -, f 5;
#X obj 24 201 pack f f;
#X obj 74 171 t b f;
#X msg 24 223 msg 0 0 \$1 \$2;
#N canvas 606 281 451 301 load 0;
#X obj 17 18 inlet;
#X obj 17 41 > 0;
#X obj 17 63 sel 1;
#X msg 17 87 load 0 examples/Rectangle.littlefoot;
#X obj 17 109 s msg;
#X text 95 30 this autoloads the program as soon as the master block
comes online, f 39;
#X connect 0 0 1 0;
#X connect 1 0 2 0;
#X connect 2 0 3 0;
#X connect 3 0 4 0;
#X restore 14 86 pd load;
#X obj 24 245 s msg;
#X msg 144 44 black;
#X msg 187 44 red;
#X msg 218 44 green;
#X msg 310 44 blue;
#X msg 261 44 yellow;
#X msg 347 44 magenta;
#X msg 402 44 cyan;
#X msg 439 44 white;
#N canvas 501 330 451 349 colors 0;
#X obj 10 22 inlet;
#X obj 10 74 sel black red green yellow blue magenta cyan white;
#X msg 10 96 0 0 0;
#X msg 47 119 255 0 0;
#X msg 84 96 0 255 0;
#X msg 121 119 255 255 0;
#X msg 158 96 0 0 255;
#X msg 195 119 255 0 255;
#X msg 232 96 0 255 255;
#X msg 269 119 255 255 255;
#X obj 10 148 unpack f f f;
#X obj 10 44 symbol;
#X floatatom 10 173 5 0 255 0 r - -, f 5;
#X floatatom 62 173 5 0 255 0 g - -, f 5;
#X floatatom 142 173 5 0 255 0 b - -, f 5;
#X obj 62 194 t b f;
#X obj 142 194 t b f;
#X obj 10 224 expr ($f1<<16)|($f2<<8)|$f3;
#X obj 10 246 outlet;
#X connect 0 0 11 0;
#X connect 1 0 2 0;
#X connect 1 1 3 0;
#X connect 1 2 4 0;
#X connect 1 3 5 0;
#X connect 1 4 6 0;
#X connect 1 5 7 0;
#X connect 1 6 8 0;
#X connect 1 7 9 0;
#X connect 2 0 10 0;
#X connect 3 0 10 0;
#X connect 4 0 10 0;
#X connect 5 0 10 0;
#X connect 6 0 10 0;
#X connect 7 0 10 0;
#X connect 8 0 10 0;
#X connect 9 0 10 0;
#X connect 10 0 12 0;
#X connect 10 1 13 0;
#X connect 10 2 14 0;
#X connect 11 0 1 0;
#X connect 12 0 17 0;
#X connect 13 0 15 0;
#X connect 14 0 16 0;
#X connect 15 0 17 0;
#X connect 15 1 17 1;
#X connect 16 0 17 0;
#X connect 16 1 17 2;
#X connect 17 0 18 0;
#X restore 144 76 pd colors;
#X text 18 120 position (x \, y);
#X text 227 22 foreground color;
#X msg 144 124 black;
#X msg 187 124 red;
#X msg 218 124 green;
#X msg 310 124 blue;
#X msg 261 124 yellow;
#X msg 347 124 magenta;
#X msg 402 124 cyan;
#X msg 439 124 white;
#N canvas 501 330 451 349 colors 0;
#X obj 10 22 inlet;
#X obj 10 74 sel black red green yellow blue magenta cyan white;
#X msg 10 96 0 0 0;
#X obj 10 148 unpack f f f;
#X obj 10 44 symbol;
#X floatatom 10 173 5 0 255 0 r - -, f 5;
#X floatatom 62 173 5 0 255 0 g - -, f 5;
#X floatatom 142 173 5 0 255 0 b - -, f 5;
#X obj 62 194 t b f;
#X obj 142 194 t b f;
#X obj 10 224 expr ($f1<<16)|($f2<<8)|$f3;
#X obj 10 246 outlet;
#X msg 84 96 0 100 0;
#X msg 158 96 0 0 100;
#X msg 232 96 0 100 100;
#X msg 47 119 100 0 0;
#X msg 269 119 100 100 100;
#X msg 194 119 100 0 100;
#X msg 121 119 100 100 0;
#X connect 0 0 4 0;
#X connect 1 0 2 0;
#X connect 1 1 15 0;
#X connect 1 2 12 0;
#X connect 1 3 18 0;
#X connect 1 4 13 0;
#X connect 1 5 17 0;
#X connect 1 6 14 0;
#X connect 1 7 16 0;
#X connect 2 0 3 0;
#X connect 3 0 5 0;
#X connect 3 1 6 0;
#X connect 3 2 7 0;
#X connect 4 0 1 0;
#X connect 5 0 10 0;
#X connect 6 0 8 0;
#X connect 7 0 9 0;
#X connect 8 0 10 0;
#X connect 8 1 10 1;
#X connect 9 0 10 0;
#X connect 9 1 10 2;
#X connect 10 0 11 0;
#X connect 12 0 3 0;
#X connect 13 0 3 0;
#X connect 14 0 3 0;
#X connect 15 0 3 0;
#X connect 16 0 3 0;
#X connect 17 0 3 0;
#X connect 18 0 3 0;
#X restore 144 156 pd colors;
#X text 227 102 background color;
#X obj 144 178 t b f;
#X msg 144 230 msg 0 1 \$1 \$2;
#X obj 144 252 s msg;
#X obj 144 200 pack f f;
#X floatatom 302 201 5 0 127 0 x - -, f 5;
#X floatatom 362 201 5 0 127 0 y - -, f 5;
#X text 310 173 MIDI control;
#X obj 302 224 ctlout 1;
#X obj 362 224 ctlout 2;
#X text 257 253 Connect Pd's MIDI output to the MIDI input of the Lightpad
Block to make this work!, f 36;
#X connect 0 0 1 0;
#X connect 1 1 9 0;
#X connect 3 0 1 0;
#X connect 4 0 6 0;
#X connect 5 0 7 0;
#X connect 6 0 8 0;
#X connect 7 0 6 0;
#X connect 7 1 6 1;
#X connect 8 0 10 0;
#X connect 11 0 19 0;
#X connect 12 0 19 0;
#X connect 13 0 19 0;
#X connect 14 0 19 0;
#X connect 15 0 19 0;
#X connect 16 0 19 0;
#X connect 17 0 19 0;
#X connect 18 0 19 0;
#X connect 19 0 35 0;
#X connect 22 0 30 0;
#X connect 23 0 30 0;
#X connect 24 0 30 0;
#X connect 25 0 30 0;
#X connect 26 0 30 0;
#X connect 27 0 30 0;
#X connect 28 0 30 0;
#X connect 29 0 30 0;
#X connect 30 0 32 0;
#X connect 32 0 35 0;
#X connect 32 1 35 1;
#X connect 33 0 34 0;
#X connect 35 0 33 0;
#X connect 36 0 39 0;
#X connect 37 0 40 0;
